<?xml version="1.0" encoding="utf-8"?>
<!-- Generator: Adobe Illustrator 23.0.3, SVG Export Plug-In . SVG Version: 6.00 Build 0)  -->
<svg version="1.1" xmlns="http://www.w3.org/2000/svg" xmlns:xlink="http://www.w3.org/1999/xlink" x="0px" y="0px"
	 viewBox="0 0 462 462" style="enable-background:new 0 0 462 462;" xml:space="preserve">
<style type="text/css">
	.st0{clip-path:url(#SVGID_2_);}
	.st1{fill:url(#SVGID_3_);}
	.st2{fill:url(#SVGID_4_);}
	.st3{fill:url(#SVGID_5_);}
	.st4{fill:url(#SVGID_6_);}
	.st5{fill:url(#SVGID_7_);}
	.st6{fill:url(#SVGID_8_);}
	.st7{fill:url(#SVGID_9_);}
	.st8{fill:url(#SVGID_10_);}
	.st9{fill:url(#SVGID_11_);}
	.st10{fill:url(#SVGID_12_);}
	.st11{fill:url(#SVGID_13_);}
	.st12{fill:url(#SVGID_14_);}
	.st13{fill:none;stroke:#D5E0E0;stroke-width:3;stroke-miterlimit:10;}
	.st14{fill:#D5E0E0;}
</style>
<g id="Layer_3">
	<g>
		<defs>
			<circle id="SVGID_1_" cx="231" cy="231" r="230"/>
		</defs>
		<clipPath id="SVGID_2_">
			<use xlink:href="#SVGID_1_"  style="overflow:visible;"/>
		</clipPath>
		<g class="st0">
			
				<linearGradient id="SVGID_3_" gradientUnits="userSpaceOnUse" x1="-232.2566" y1="3911.8496" x2="-232.2566" y2="2846.1824" gradientTransform="matrix(0.4167 0 0 -0.4167 319.725 1639.5137)">
				<stop  offset="0" style="stop-color:#FF0000"/>
				<stop  offset="1" style="stop-color:#EE00FF"/>
			</linearGradient>
			<rect x="-54.6" y="-5.2" class="st1" width="555.2" height="472.4"/>
			
				<linearGradient id="SVGID_4_" gradientUnits="userSpaceOnUse" x1="-176.7415" y1="3911.8496" x2="-176.7415" y2="2846.1824" gradientTransform="matrix(0.4167 0 0 -0.4167 319.725 1639.5137)">
				<stop  offset="0" style="stop-color:#FF0019"/>
				<stop  offset="1" style="stop-color:#CE00F3"/>
			</linearGradient>
			<rect x="-8.4" y="-5.2" class="st2" width="508.9" height="472.4"/>
			
				<linearGradient id="SVGID_5_" gradientUnits="userSpaceOnUse" x1="-121.2265" y1="3911.8496" x2="-121.2265" y2="2846.1824" gradientTransform="matrix(0.4167 0 0 -0.4167 319.725 1639.5137)">
				<stop  offset="0" style="stop-color:#FF0031"/>
				<stop  offset="1" style="stop-color:#B000E6"/>
			</linearGradient>
			<rect x="37.9" y="-5.2" class="st3" width="462.6" height="472.4"/>
			
				<linearGradient id="SVGID_6_" gradientUnits="userSpaceOnUse" x1="-65.7114" y1="3911.8496" x2="-65.7114" y2="2846.1824" gradientTransform="matrix(0.4167 0 0 -0.4167 319.725 1639.5137)">
				<stop  offset="0" style="stop-color:#FF004A"/>
				<stop  offset="1" style="stop-color:#9400DA"/>
			</linearGradient>
			<rect x="84.2" y="-5.2" class="st4" width="416.4" height="472.4"/>
			
				<linearGradient id="SVGID_7_" gradientUnits="userSpaceOnUse" x1="-10.1964" y1="3911.8496" x2="-10.1964" y2="2846.1824" gradientTransform="matrix(0.4167 0 0 -0.4167 319.725 1639.5137)">
				<stop  offset="0" style="stop-color:#FF0063"/>
				<stop  offset="1" style="stop-color:#7A00CE"/>
			</linearGradient>
			<rect x="130.4" y="-5.2" class="st5" width="370.1" height="472.4"/>
			
				<linearGradient id="SVGID_8_" gradientUnits="userSpaceOnUse" x1="45.3187" y1="3911.8496" x2="45.3187" y2="2846.1824" gradientTransform="matrix(0.4167 0 0 -0.4167 319.725 1639.5137)">
				<stop  offset="0" style="stop-color:#FF007C"/>
				<stop  offset="1" style="stop-color:#6200C1"/>
			</linearGradient>
			<rect x="176.7" y="-5.2" class="st6" width="323.8" height="472.4"/>
			
				<linearGradient id="SVGID_9_" gradientUnits="userSpaceOnUse" x1="100.8337" y1="3911.8496" x2="100.8337" y2="2846.1824" gradientTransform="matrix(0.4167 0 0 -0.4167 319.725 1639.5137)">
				<stop  offset="0" style="stop-color:#FF0094"/>
				<stop  offset="1" style="stop-color:#4D00B5"/>
			</linearGradient>
			<rect x="223" y="-5.2" class="st7" width="277.6" height="472.4"/>
			
				<linearGradient id="SVGID_10_" gradientUnits="userSpaceOnUse" x1="156.3488" y1="3911.8496" x2="156.3488" y2="2846.1824" gradientTransform="matrix(0.4167 0 0 -0.4167 319.725 1639.5137)">
				<stop  offset="0" style="stop-color:#FF00AD"/>
				<stop  offset="1" style="stop-color:#3900A8"/>
			</linearGradient>
			<rect x="269.2" y="-5.2" class="st8" width="231.3" height="472.4"/>
			
				<linearGradient id="SVGID_11_" gradientUnits="userSpaceOnUse" x1="211.8638" y1="3911.8496" x2="211.8638" y2="2846.1824" gradientTransform="matrix(0.4167 0 0 -0.4167 319.725 1639.5137)">
				<stop  offset="0" style="stop-color:#FF00C6"/>
				<stop  offset="1" style="stop-color:#28009C"/>
			</linearGradient>
			<rect x="315.5" y="-5.2" class="st9" width="185.1" height="472.4"/>
			
				<linearGradient id="SVGID_12_" gradientUnits="userSpaceOnUse" x1="267.3788" y1="3911.8496" x2="267.3788" y2="2846.1824" gradientTransform="matrix(0.4167 0 0 -0.4167 319.725 1639.5137)">
				<stop  offset="0" style="stop-color:#FF00DF"/>
				<stop  offset="1" style="stop-color:#180090"/>
			</linearGradient>
			<rect x="361.7" y="-5.2" class="st10" width="138.8" height="472.4"/>
			
				<linearGradient id="SVGID_13_" gradientUnits="userSpaceOnUse" x1="322.8939" y1="3911.8496" x2="322.8939" y2="2846.1824" gradientTransform="matrix(0.4167 0 0 -0.4167 319.725 1639.5137)">
				<stop  offset="0" style="stop-color:#FF00F7"/>
				<stop  offset="1" style="stop-color:#0B0083"/>
			</linearGradient>
			<rect x="408" y="-5.2" class="st11" width="92.5" height="472.4"/>
			
				<linearGradient id="SVGID_14_" gradientUnits="userSpaceOnUse" x1="378.4089" y1="3911.8496" x2="378.4089" y2="2846.1824" gradientTransform="matrix(0.4167 0 0 -0.4167 319.725 1639.5137)">
				<stop  offset="0" style="stop-color:#EE00FF"/>
				<stop  offset="1" style="stop-color:#000077"/>
			</linearGradient>
			<rect x="454.3" y="-5.2" class="st12" width="46.3" height="472.4"/>
		</g>
	</g>
</g>
<g id="Layer_1">
	<g>
		<path d="M231,1c31.1,0,61.2,6.1,89.5,18.1c27.4,11.6,52,28.2,73.1,49.3s37.7,45.7,49.3,73.1c12,28.4,18.1,58.5,18.1,89.5
			s-6.1,61.2-18.1,89.5c-11.6,27.4-28.2,52-49.3,73.1c-21.1,21.1-45.7,37.7-73.1,49.3C292.1,454.9,262,461,231,461
			s-61.2-6.1-89.5-18.1c-27.4-11.6-52-28.2-73.1-49.3c-21.1-21.1-37.7-45.7-49.3-73.1C7.1,292.2,1,262.1,1,231s6.1-61.2,18.1-89.5
			c11.6-27.4,28.2-52,49.3-73.1s45.7-37.7,73.1-49.3C169.8,7.1,199.9,1,231,1 M231,0C103.4,0,0,103.4,0,231s103.4,231,231,231
			s231-103.4,231-231S358.6,0,231,0L231,0z"/>
		<line class="st13" x1="44.5" y1="337.9" x2="75.1" y2="320.2"/>
		<line class="st13" x1="122.9" y1="416.8" x2="140.6" y2="386.2"/>
		<line class="st13" x1="337.9" y1="417.5" x2="320.2" y2="386.9"/>
		<line class="st13" x1="416.8" y1="339.1" x2="386.2" y2="321.4"/>
		<line class="st13" x1="417.5" y1="124.1" x2="386.9" y2="141.8"/>
		<line class="st13" x1="339.1" y1="45.2" x2="321.4" y2="75.8"/>
		<line class="st13" x1="124.1" y1="44.5" x2="141.8" y2="75.1"/>
		<line class="st13" x1="45.2" y1="122.9" x2="75.8" y2="140.6"/>
		<path class="st14" d="M419.7,212.2c7.6,0,11.7,4.3,11.7,9.8c0,4.6-2.9,7.5-5.6,8.4v0.2c3.8,1.2,6.2,4.2,6.2,9.2
			c0,6-4.3,10.5-12,10.5c-7.3,0-12.8-3.7-13.1-11.4h6.9c0.2,3.2,2.3,5.5,6.1,5.5c3.6,0,5.4-2.2,5.4-5.2c0-4.2-2.6-5.7-7.9-5.7h-1.5
			v-5.8h1.5c4.2,0,7.2-1.2,7.2-4.8c0-2.9-1.8-4.6-5-4.6c-3.4,0-4.9,2.2-5.2,4.6h-7C407.7,216,412.6,212.2,419.7,212.2z"/>
		<path class="st14" d="M229.6,413.7c-4.6,0-6.7,3.5-6.8,12c1.7-2.8,5-4.3,8.6-4.3c6.6,0,11.2,4.4,11.2,12.1
			c0,7.2-4.4,12.4-12.3,12.4c-11,0-13.7-7.7-13.7-19.2c0-12.1,3.9-18.8,13.3-18.8c7.6,0,11.1,4.9,11.7,10.1H235
			C234.2,415.2,232.8,413.7,229.6,413.7z M223.4,433.3c0,4,2.3,6.4,6.5,6.4c3.7,0,5.9-2.4,5.9-6.2s-2-6.4-6.1-6.4
			C226.4,427.2,223.4,429.1,223.4,433.3z"/>
		<path class="st14" d="M37.4,247c4.2,0,6-3.1,6-11.4c-1.6,2.2-4.6,3.4-7.8,3.4c-6.4,0-11.5-4-11.5-11.8c0-7.4,4.7-12.3,12.5-12.3
			c10,0,13.1,6.8,13.1,18.5c0,12.6-2.8,19.4-12.6,19.4c-7.9,0-11.6-5-12-10.5h6.6C32.2,245.3,34.1,247,37.4,247z M42.7,227.2
			c0-4.1-2.3-6.3-5.9-6.3c-3.7,0-5.9,2.5-5.9,6.2c0,3.3,1.9,6.1,6.2,6.1C40.6,233.2,42.7,230.8,42.7,227.2z"/>
		<path class="st14" d="M212.2,25.4v-6.5h12.2v37h-7.3V25.4H212.2z"/>
		<path class="st14" d="M248.2,29.6c0-3.3-1.5-5.5-5-5.5c-3.4,0-5.3,2.4-5.3,6.3H231c0.3-8.5,5.7-12.4,12.3-12.4c8,0,12,4.7,12,11.2
			c0,8.6-8.3,15.3-14.2,20.2h15v5.9H231V50C239.4,43,248.2,36.4,248.2,29.6z"/>
	</g>
</g>
</svg>
